<svg width="62" height="62" viewBox="0 0 62 62" fill="none" xmlns="http://www.w3.org/2000/svg">
<path d="M18.0833 46.5C15.2416 46.5 12.9424 48.825 12.9424 51.6667C12.9424 54.5084 15.2416 56.8334 18.0833 56.8334C20.9249 56.8334 23.2499 54.5084 23.2499 51.6667C23.2499 48.825 20.9249 46.5 18.0833 46.5ZM2.58325 5.16668V10.3333H7.74992L17.0499 29.9408L13.5624 36.27C13.1491 36.9933 12.9166 37.8458 12.9166 38.75C12.9166 41.5917 15.2416 43.9167 18.0833 43.9167H49.0833V38.75H19.1683C18.8066 38.75 18.5224 38.4658 18.5224 38.1042L18.5999 37.7942L20.9249 33.5833H40.1708C42.1083 33.5833 43.8133 32.5242 44.6916 30.9225L53.9399 14.1567C54.1466 13.795 54.2499 13.3558 54.2499 12.9167C54.2499 11.4958 53.0874 10.3333 51.6666 10.3333H13.4591L11.0308 5.16668H2.58325ZM43.9166 46.5C41.0749 46.5 38.7758 48.825 38.7758 51.6667C38.7758 54.5084 41.0749 56.8334 43.9166 56.8334C46.7583 56.8334 49.0833 54.5084 49.0833 51.6667C49.0833 48.825 46.7583 46.5 43.9166 46.5Z" fill="black"/>
</svg>
